<?xml version="1.0" encoding="UTF-8" standalone="no"?>
<!-- Created with Inkscape (http://www.inkscape.org/) -->

<svg
   xmlns:dc="http://purl.org/dc/elements/1.1/"
   xmlns:cc="http://creativecommons.org/ns#"
   xmlns:rdf="http://www.w3.org/1999/02/22-rdf-syntax-ns#"
   xmlns:svg="http://www.w3.org/2000/svg"
   xmlns="http://www.w3.org/2000/svg"
   xmlns:sodipodi="http://sodipodi.sourceforge.net/DTD/sodipodi-0.dtd"
   xmlns:inkscape="http://www.inkscape.org/namespaces/inkscape"
   id="svg4981"
   version="1.1"
   inkscape:version="0.91 r13725"
   xml:space="preserve"
   width="764.24115"
   height="362.38837"
   viewBox="0 0 764.24115 362.38837"
   sodipodi:docname="facebook-logo-color.inkscape.svg"><metadata
     id="metadata4987"><rdf:RDF><cc:Work
         rdf:about=""><dc:format>image/svg+xml</dc:format><dc:type
           rdf:resource="http://purl.org/dc/dcmitype/StillImage" /><dc:title></dc:title></cc:Work></rdf:RDF></metadata><defs
     id="defs4985"><clipPath
       clipPathUnits="userSpaceOnUse"
       id="clipPath4997"><path
         d="m 0,250.9657 611.3929,0 0,289.8379 -611.3929,0 0,-289.8379 z"
         id="path4999"
         inkscape:connector-curvature="0" /></clipPath></defs><sodipodi:namedview
     pagecolor="#ffffff"
     bordercolor="#666666"
     borderopacity="1"
     objecttolerance="10"
     gridtolerance="10"
     guidetolerance="10"
     inkscape:pageopacity="0"
     inkscape:pageshadow="2"
     inkscape:window-width="1478"
     inkscape:window-height="853"
     id="namedview4983"
     showgrid="false"
     fit-margin-top="0"
     fit-margin-left="0"
     fit-margin-right="0"
     fit-margin-bottom="0"
     inkscape:zoom="0.67425131"
     inkscape:cx="342.66846"
     inkscape:cy="19.974447"
     inkscape:window-x="103"
     inkscape:window-y="63"
     inkscape:window-maximized="0"
     inkscape:current-layer="svg4981" /><g
     id="g4989"
     inkscape:groupmode="layer"
     inkscape:label="etsy_logo_bw"
     transform="matrix(1.25,0,0,-1.25,0,676.0045)"><path
       d="m 245.8929,509.5357 c -6.375,-36.7321 -23.9822,-50.0893 -45.5358,-52.5178 l 0,-10.625 27.0179,0 0,-93.1965 c 0,-26.1071 17.3036,-38.8571 40.375,-38.8571 17.9107,0 36.4286,7.5893 42.8036,23.375 l -6.375,8.1964 c -3.0357,-5.1607 -12.75,-12.75 -24.8929,-12.75 -13.3571,0 -20.6428,9.1072 -20.6428,32.1786 l 0,82.2678 44.9285,-3.3392 2.4286,20.6428 -47.3571,-1.8214 0,46.4464 -12.75,0 z m 95.625,-143.2857 -11.5358,-0.3036 c 1.5179,-14.5714 1.8215,-29.1428 0,-42.5 0,0 23.0715,-8.5 46.4465,-8.5 31.5714,0 56.7678,15.1786 56.7678,44.625 0,51.6072 -76.5,43.4107 -76.5,78.0179 0,14.2678 13.0536,19.7321 26.4107,19.7321 11.2322,0 20.3393,-3.9464 22.1608,-9.7143 l 7.5892,-22.7678 11.2322,0.6071 c 0.6071,12.1429 1.5178,26.1072 3.3393,37.3393 -9.7143,4.25 -30.0536,6.6786 -42.8036,6.6786 -29.75,0 -53.7321,-13.0536 -53.7321,-42.1964 0,-51 74.6785,-39.7679 74.6785,-78.0179 0,-12.75 -8.1964,-22.4643 -26.4107,-22.4643 -17.3036,0 -25.8036,8.8036 -29.1428,17.6072 l -8.5,21.8571 z m 124.1607,-98.0536 c -9.1072,0 -11.8393,4.25 -13.0536,10.3215 l -4.5536,23.6785 -12.75,-0.6071 c -1.8214,-13.9643 -4.5535,-29.75 -8.1964,-42.1964 8.5,-5.7679 18.8214,-8.5 32.7857,-8.5 20.6429,0 51.6072,5.7678 79.5357,71.6428 l 48.5715,115.0536 c 3.9464,9.1071 5.1607,10.3214 17,14.875 l 6.375,2.4286 0,10.625 -28.8393,-1.5179 -30.6607,1.5179 0,-10.625 7.8928,-2.4286 c 7.8929,-2.4286 11.5357,-5.1607 11.5357,-11.5357 0,-3.3393 -0.9107,-4.8572 -2.7321,-9.1072 -3.3393,-8.5 -24.8929,-61.625 -35.5179,-84.6964 -13.3571,33.3929 -31.5714,83.1786 -33.6964,90.4643 -0.6071,1.8214 -0.9107,3.3393 -0.9107,4.8571 0,4.8572 3.3393,8.8036 10.625,10.3215 l 10.0178,2.125 0,10.625 -41.5892,-1.5179 -33.0893,1.5179 0,-10.625 5.4643,-1.8215 c 7.8928,-2.7321 8.8035,-3.6428 13.9642,-15.1785 20.9465,-47.3572 44.3215,-107.7679 51.9108,-127.5 -16.3929,-33.0893 -35.8215,-42.1965 -50.0893,-42.1965 z M 65.57143,518.0357 c 0,3.0357 0.30357,4.8572 5.46428,4.8572 l 69.51789,0 c 12.1428,0 18.8214,-10.3215 23.6785,-29.75 l 3.9465,-15.4822 11.8393,0 c 2.125,44.0179 3.9464,63.1429 3.9464,63.1429 0,0 -29.75,-3.3393 -47.3572,-3.3393 l -88.94639,0 L 0,538.9821 l 0,-12.75 16.08929,-3.0357 c 11.23214,-2.125 13.96428,-4.5535 14.875,-14.875 0,0 0.91071,-30.3571 0.91071,-80.4464 0,-50.0893 -0.91071,-80.1429 -0.91071,-80.1429 0,-9.1071 -3.64286,-12.4464 -14.875,-14.5714 L 0,330.125 l 0,-12.75 47.66071,1.5179 79.53569,0 c 17.9107,0 59.5,-1.5179 59.5,-1.5179 0.9107,10.9286 6.9822,60.4107 7.8929,65.875 l -11.2322,0 -11.8392,-27.0179 c -9.4108,-21.25 -23.0715,-22.7678 -38.25,-22.7678 l -45.23219,0 c -15.17857,0 -22.46428,6.0714 -22.46428,19.125 l 0,69.2143 c 0,0 33.69643,0 44.62497,-0.9107 8.5,-0.6072 13.6607,-3.0358 16.3929,-14.875 l 3.6428,-15.7858 13.0536,0 -0.9107,39.7679 1.8214,40.0714 -13.0535,0 -4.25,-17.6071 C 124.1607,440.9286 122.3393,438.8036 110.5,437.5893 95.01786,436.0714 65.57143,436.375 65.57143,436.375 l 0,81.6607"
       style="fill:#f56400;fill-opacity:1;fill-rule:nonzero;stroke:none"
       id="path5001"
       inkscape:connector-curvature="0" /></g></svg>
