<?xml version="1.0" encoding="UTF-8" standalone="no"?>
<!-- Created with Inkscape (http://www.inkscape.org/) -->

<svg
   xmlns:dc="http://purl.org/dc/elements/1.1/"
   xmlns:cc="http://creativecommons.org/ns#"
   xmlns:rdf="http://www.w3.org/1999/02/22-rdf-syntax-ns#"
   xmlns:svg="http://www.w3.org/2000/svg"
   xmlns="http://www.w3.org/2000/svg"
   xmlns:sodipodi="http://sodipodi.sourceforge.net/DTD/sodipodi-0.dtd"
   xmlns:inkscape="http://www.inkscape.org/namespaces/inkscape"
   id="svg4276"
   version="1.1"
   inkscape:version="0.91 r13725"
   xml:space="preserve"
   width="333.61749"
   height="333.61749"
   viewBox="0 0 333.61749 333.61749"
   sodipodi:docname="facebook-logo-white.inkscape.svg"><metadata
     id="metadata4282"><rdf:RDF><cc:Work
         rdf:about=""><dc:format>image/svg+xml</dc:format><dc:type
           rdf:resource="http://purl.org/dc/dcmitype/StillImage" /><dc:title></dc:title></cc:Work></rdf:RDF></metadata><defs
     id="defs4280"><clipPath
       clipPathUnits="userSpaceOnUse"
       id="clipPath4292"><path
         d="M 0.06,0 1024,0 1024,500 0.06,500 0.06,0 Z"
         id="path4294"
         inkscape:connector-curvature="0" /></clipPath><clipPath
       clipPathUnits="userSpaceOnUse"
       id="clipPath4308"><path
         d="m 0,0 1024,0 0,500 L 0,500 0,0 Z"
         id="path4310"
         inkscape:connector-curvature="0" /></clipPath><clipPath
       clipPathUnits="userSpaceOnUse"
       id="clipPath4322"><path
         d="M 0.06,0 1024,0 1024,500 0.06,500 0.06,0 Z"
         id="path4324"
         inkscape:connector-curvature="0" /></clipPath><clipPath
       clipPathUnits="userSpaceOnUse"
       id="clipPath4334"><path
         d="m 0,0 1024,0 0,500 L 0,500 0,0 Z"
         id="path4336"
         inkscape:connector-curvature="0" /></clipPath></defs><sodipodi:namedview
     pagecolor="#b6b6b6"
     bordercolor="#666666"
     borderopacity="1"
     objecttolerance="10"
     gridtolerance="10"
     guidetolerance="10"
     inkscape:pageopacity="0"
     inkscape:pageshadow="2"
     inkscape:window-width="1568"
     inkscape:window-height="976"
     id="namedview4278"
     showgrid="false"
     fit-margin-top="0"
     fit-margin-left="0"
     fit-margin-right="0"
     fit-margin-bottom="0"
     inkscape:zoom="1.15"
     inkscape:cx="120.65684"
     inkscape:cy="298.29722"
     inkscape:window-x="24"
     inkscape:window-y="0"
     inkscape:window-maximized="0"
     inkscape:current-layer="svg4276" /><g
     id="g4284"
     inkscape:groupmode="layer"
     inkscape:label="FB-fLogo-printpackaging"
     transform="matrix(1.25,0,0,-1.25,0,333.6175)"><g
       id="g4286" /><path
       d="m 252.164,266.894 -237.434,0 C 6.593,266.894 0,260.301 0,252.164 L 0,14.73 C 0,6.595 6.593,0 14.73,0 l 127.826,0 0,103.355 -34.781,0 0,40.28 34.781,0 0,29.705 c 0,34.473 21.055,53.244 51.807,53.244 14.73,0 27.391,-1.097 31.08,-1.587 l 0,-36.026 -21.328,-0.01 c -16.725,0 -19.963,-7.947 -19.963,-19.609 l 0,-25.717 39.887,0 -5.194,-40.28 -34.693,0 0,-103.355 68.012,0 c 8.135,0 14.73,6.595 14.73,14.73 l 0,237.434 c 0,8.137 -6.595,14.73 -14.73,14.73"
       style="fill:#ffffff;fill-opacity:1;fill-rule:nonzero;stroke:none"
       id="path4350"
       inkscape:connector-curvature="0" /></g></svg>