<?xml version="1.0" encoding="UTF-8" standalone="no"?>
<svg
   xmlns:dc="http://purl.org/dc/elements/1.1/"
   xmlns:cc="http://creativecommons.org/ns#"
   xmlns:rdf="http://www.w3.org/1999/02/22-rdf-syntax-ns#"
   xmlns:svg="http://www.w3.org/2000/svg"
   xmlns="http://www.w3.org/2000/svg"
   viewBox="0 0 333.61749 333.61749"
   height="333.61749"
   width="333.61749"
   xml:space="preserve"
   version="1.1"
   id="svg4276"><metadata
     id="metadata4282"><rdf:RDF><cc:Work
         rdf:about=""><dc:format>image/svg+xml</dc:format><dc:type
           rdf:resource="http://purl.org/dc/dcmitype/StillImage" /><dc:title></dc:title></cc:Work></rdf:RDF></metadata><defs
     id="defs4280"><clipPath
       id="clipPath4292"
       clipPathUnits="userSpaceOnUse"><path
         id="path4294"
         d="M 0.06,0 1024,0 1024,500 0.06,500 0.06,0 Z" /></clipPath><clipPath
       id="clipPath4308"
       clipPathUnits="userSpaceOnUse"><path
         id="path4310"
         d="m 0,0 1024,0 0,500 L 0,500 0,0 Z" /></clipPath><clipPath
       id="clipPath4322"
       clipPathUnits="userSpaceOnUse"><path
         id="path4324"
         d="M 0.06,0 1024,0 1024,500 0.06,500 0.06,0 Z" /></clipPath><clipPath
       id="clipPath4334"
       clipPathUnits="userSpaceOnUse"><path
         id="path4336"
         d="m 0,0 1024,0 0,500 L 0,500 0,0 Z" /></clipPath></defs><g
     transform="matrix(1.25,0,0,-1.25,0,333.6175)"
     id="g4284"><g
       id="g4286" /><path
       id="path4350"
       style="fill:#ffffff;fill-opacity:1;fill-rule:nonzero;stroke:none"
       d="m 252.164,266.894 -237.434,0 C 6.593,266.894 0,260.301 0,252.164 L 0,14.73 C 0,6.595 6.593,0 14.73,0 l 127.826,0 0,103.355 -34.781,0 0,40.28 34.781,0 0,29.705 c 0,34.473 21.055,53.244 51.807,53.244 14.73,0 27.391,-1.097 31.08,-1.587 l 0,-36.026 -21.328,-0.01 c -16.725,0 -19.963,-7.947 -19.963,-19.609 l 0,-25.717 39.887,0 -5.194,-40.28 -34.693,0 0,-103.355 68.012,0 c 8.135,0 14.73,6.595 14.73,14.73 l 0,237.434 c 0,8.137 -6.595,14.73 -14.73,14.73" /></g></svg>