<?xml version="1.0" encoding="UTF-8" standalone="no"?>
<svg
   xmlns:dc="http://purl.org/dc/elements/1.1/"
   xmlns:cc="http://creativecommons.org/ns#"
   xmlns:rdf="http://www.w3.org/1999/02/22-rdf-syntax-ns#"
   xmlns:svg="http://www.w3.org/2000/svg"
   xmlns="http://www.w3.org/2000/svg"
   xmlns:xlink="http://www.w3.org/1999/xlink"
   xmlns:sodipodi="http://sodipodi.sourceforge.net/DTD/sodipodi-0.dtd"
   xmlns:inkscape="http://www.inkscape.org/namespaces/inkscape"
   viewBox="0 0 481 274"
   id="svg2"
   version="1.1"
   inkscape:version="0.91 r13725"
   sodipodi:docname="sun-barn.svg">
  <metadata
     id="metadata28">
    <rdf:RDF>
      <cc:Work
         rdf:about="">
        <dc:format>image/svg+xml</dc:format>
        <dc:type
           rdf:resource="http://purl.org/dc/dcmitype/StillImage" />
        <dc:title></dc:title>
      </cc:Work>
    </rdf:RDF>
  </metadata>
  <sodipodi:namedview
     pagecolor="#ffffff"
     bordercolor="#666666"
     borderopacity="1"
     objecttolerance="10"
     gridtolerance="10"
     guidetolerance="10"
     inkscape:pageopacity="0"
     inkscape:pageshadow="2"
     inkscape:window-width="1444"
     inkscape:window-height="915"
     id="namedview26"
     showgrid="false"
     inkscape:zoom="1.6112038"
     inkscape:cx="226.25815"
     inkscape:cy="141.72325"
     inkscape:window-x="1875"
     inkscape:window-y="183"
     inkscape:window-maximized="0"
     inkscape:current-layer="svg2" />
  <defs
     id="defs4">
    <pattern
       inkscape:collect="always"
       xlink:href="#pattern5655"
       id="pattern5662"
       patternTransform="matrix(0.40104288,0,0,0.40104288,22.991533,41.03506)" />
    <pattern
       id="image-1"
       patternUnits="objectBoundingBox"
       width="2195"
       height="1250"
       preserveAspectRatio="xMidYMid slice">
      <image
         sodipodi:absref="/Users/kccricket/Sites/thesunbarnstudio.art/img/IMG_8588.JPG"
         xlink:href="IMG_8588.JPG"
         id="image7"
         y="0"
         x="0"
         preserveAspectRatio="xMidYMid slice"
         height="1250"
         width="2195" />
    </pattern>
    <pattern
       patternUnits="userSpaceOnUse"
       width="1097.5"
       height="625"
       patternTransform="translate(68.299271,-91.16423)"
       id="pattern5655">
      <image
         sodipodi:absref="/Users/kccricket/Sites/thesunbarnstudio.art/img/IMG_8588.JPG"
         xlink:href="IMG_8588.JPG"
         y="0"
         x="0"
         id="image5652"
         style="image-rendering:optimizeSpeed"
         preserveAspectRatio="none"
         height="625"
         width="1097.5" />
    </pattern>
  </defs>
  <path
     id="barn-path-1"
     d="m 26.268,272.062 0,-94.906 119.146,-36.842 0,-12.434 14.781,-2.564 c 1.6,6.387 5.079,12.03 9.816,16.306 L 70.184,272.114 Z m 167.044,-227.493 0,40.108 c -0.464,-0.019 -0.93,-0.029 -1.398,-0.029 -5.841,0 -11.324,1.531 -16.069,4.215 L 154.521,72.78 Z m 140.9,30.956 0,63.793 121.057,36.495 0,95.844 -37.09,0 -194.543,-146.356 c 0.637,-2.547 0.975,-5.212 0.975,-7.956 0,-4.802 -1.035,-9.362 -2.894,-13.469 l 66.505,-59.505 z"
     style="fill:url(#pattern5662);fill-opacity:1"
     inkscape:connector-curvature="0" />
  <path
     d="M 407.838 272.273 L 198.993 272.273 L 198.993 149.274 C 209.193 147.022 217.605 140.008 221.776 130.682 Z"
     style="fill: rgb(92, 92, 220);"
     id="path10" />
  <path
     d="M 191.748 272.044 L 80.491 272.044 L 175.174 145.438 C 180.026 148.335 185.693 150.011 191.748 150.042 Z M 240.526 10.285 L 284.018 41.631 L 219.346 99.546 C 214.784 92.529 207.603 87.372 199.189 85.46 L 199.189 40.259 Z M 149.428 75.719 L 170.797 92.38 C 163.714 98.378 159.217 107.336 159.217 117.345 C 159.217 117.906 159.231 118.464 159.259 119.018 L 145.314 121.965 L 145.314 78.07 Z"
     style="fill: rgb(186, 218, 85);"
     id="path12" />
  <ellipse
     transform="matrix(0.707107, 0.707107, -0.707107, 0.707107, 159.024155, -20.653753)"
     cx="120.846"
     cy="74.367"
     rx="25.492"
     ry="25.492"
     style="fill: rgb(196, 43, 0);"
     id="ellipse14" />
  <path
     d="M 120.434 92.485 L 240.365 6.332 L 359.102 89.073 L 358.932 83.613 L 240.024 1.726 L 120.263 88.22 L 120.434 92.485 Z"
     id="path16" />
  <path
     d="M 479.716 179.149 L 338.971 137.011 L 338.971 131.698 L 479.375 174.543 L 479.716 179.149 Z"
     id="path18" />
  <path
     d="M 1.284 181.515 L 141.794 137.693 L 141.794 133.266 L 1.284 176.288 L 1.284 181.515 Z"
     id="path20" />
  <path
     d="M 204.503 149.599"
     style="fill: rgb(216, 216, 216);"
     id="path22" />
  <path
     d="M 132.703 88.149"
     style="fill: rgb(216, 216, 216);"
     id="path24" />
</svg>
